<?xml version="1.0" encoding="UTF-8" standalone="no"?>
<svg
   xmlns:dc="http://purl.org/dc/elements/1.1/"
   xmlns:cc="http://creativecommons.org/ns#"
   xmlns:rdf="http://www.w3.org/1999/02/22-rdf-syntax-ns#"
   xmlns:svg="http://www.w3.org/2000/svg"
   xmlns="http://www.w3.org/2000/svg"
   width="16.036"
   height="16"
   id="svg2"
   version="1.1">
  <metadata
     id="metadata12">
    <rdf:RDF>
      <cc:Work
         rdf:about="">
        <dc:format>image/svg+xml</dc:format>
        <dc:type
           rdf:resource="http://purl.org/dc/dcmitype/StillImage" />
        <dc:title>elementary Symbolic Icon Theme</dc:title>
      </cc:Work>
    </rdf:RDF>
  </metadata>
  <defs
     id="defs10" />
  <title
     id="title4">elementary Symbolic Icon Theme</title>
  <path
     id="path8069"
     d="m 5.500034,14.5 0,0 c -1.500034,0.03125 -2,-0.9375 -2,-2 l 0,-2.5 C 3.500034,9.15625 2.499966,8.5 1,8.5 2.2202282,8.480454 3.510011,8.0690658 3.500034,7 l 0,-2.5 c -0.03125,-1.09375 0.499966,-2 2,-2"
     style="fill:none;fill-rule:evenodd;stroke:#403757;stroke-width:1px;stroke-linecap:square;stroke-linejoin:miter;stroke-opacity:1" />
  <path
     style="fill:none;fill-rule:evenodd;stroke:#403757;stroke-width:1px;stroke-linecap:square;stroke-linejoin:miter;stroke-opacity:1"
     d="m 10.491992,14.5 0,0 c 1.500034,0.03125 2,-0.9375 2,-2 l 0,-2.5 c 0,-0.84375 1.000068,-1.5 2.500034,-1.5 C 13.771798,8.480454 12.482015,8.0690658 12.491992,7 l 0,-2.5 c 0.03125,-1.09375 -0.499966,-2 -2,-2"
     id="path8075" />
</svg>
